<mxfile host="app.diagrams.net" modified="2024-06-24T14:41:47.382Z" agent="Mozilla/5.0 (Macintosh; Intel Mac OS X 10_15_7) AppleWebKit/605.1.15 (KHTML, like Gecko) Version/17.5 Safari/605.1.15" version="24.6.2" etag="HWX7lw0CNgs6HxBA-EUW" type="github">
  <diagram name="Page-1" id="ybwnhUv_yuMlzH-fVToa">
    <mxGraphModel>
      <root>
        <mxCell id="0" />
        <mxCell id="1" parent="0" />
      </root>
    </mxGraphModel>
  </diagram>
</mxfile>
